<?xml version="1.0" encoding="UTF-8"?>
<svg id="uuid-80594ecb-abe1-4371-92b6-3ac3bf24193a" data-name="Layer 1" xmlns="http://www.w3.org/2000/svg" viewBox="0 0 1271.58 1222.31">
  <defs>
    <style>
      .uuid-8f1cccc8-eab6-4931-b661-c8755fad88fe, .uuid-00dbaf0b-0381-4e1e-ab35-bf4a0f840656 {
        fill: #fff;
      }

      .uuid-ab210b95-b4e4-40eb-8286-d047c10a9a83 {
        letter-spacing: -.02em;
      }

      .uuid-4b081196-f448-4922-a1b7-cb7f0643d97e {
        letter-spacing: 0em;
      }

      .uuid-00dbaf0b-0381-4e1e-ab35-bf4a0f840656 {
        font-family: BigShouldersDisplay-Regular, 'Big Shoulders Display';
        font-size: 259.89px;
        font-variation-settings: 'wght' 400;
      }

      .uuid-502d683e-e9ac-4437-ac54-eff1b463e4e9 {
        letter-spacing: 0em;
      }

      .uuid-2a4f114a-9b3d-4582-81f5-143f3d48b5e1 {
        fill: #eee;
      }
    </style>
  </defs>
  <g id="uuid-abd4b191-730f-45a8-96e9-f88b913f2fbc" data-name="light">
    <g>
      <g>
        <path class="uuid-2a4f114a-9b3d-4582-81f5-143f3d48b5e1" d="M928.91,157.69H109.25c5.57-10.65,11.85-20.6,18.81-29.86,13.19-17.53,29.81-33,49.87-46.37H859.18c29.42,19.86,52.67,45.27,69.73,76.23Z"/>
        <path class="uuid-2a4f114a-9b3d-4582-81f5-143f3d48b5e1" d="M964.2,310.14h-291.56c-.43-20.47-1.32-40.9-2.64-61.29-.16-5.23-.81-10.2-1.97-14.93h288.31c3.25,15.65,5.53,32.19,6.79,49.61,.57,8.2,.93,17.07,1.08,26.61Z"/>
        <path class="uuid-2a4f114a-9b3d-4582-81f5-143f3d48b5e1" d="M381.49,233.92c-1.55,4.73-2.71,9.7-3.49,14.93-2.79,20.38-4.57,40.81-5.35,61.29H75.83c.25-8.87,.53-17.73,.85-26.61,1.26-17.45,3.44-33.99,6.54-49.61H381.49Z"/>
        <path class="uuid-2a4f114a-9b3d-4582-81f5-143f3d48b5e1" d="M962.19,386.38c-1.25,26.05-2.5,51.3-3.75,75.76h-289.65c1.65-25.19,2.83-50.44,3.49-75.76h289.9Z"/>
        <path class="uuid-2a4f114a-9b3d-4582-81f5-143f3d48b5e1" d="M391.57,462.61H80c-2.28-13.58-3.79-27.75-4.5-42.53-.37-11.49-.6-22.73-.7-33.7H374.27c.92,11.29,2.17,22.53,3.72,33.7,1.91,15.65,6.43,29.84,13.58,42.53Z"/>
        <path class="uuid-2a4f114a-9b3d-4582-81f5-143f3d48b5e1" d="M866.7,615.07H171.54c-28.31-19.78-49.61-42.95-63.92-69.51-1.2-2.22-2.35-4.45-3.48-6.72h507.36l38.63,5.96c80.98,11.81,144.23,29.89,189.77,54.24,9.5,5.07,18.42,10.41,26.81,16.03Z"/>
        <path class="uuid-2a4f114a-9b3d-4582-81f5-143f3d48b5e1" d="M965.33,767.53h-315.78c-3.31-5.05-7.01-9.91-11.11-14.6-16.37-18.69-43.98-31.24-82.93-37.63l-152.79-23.99H938.59c12.38,22.97,21.29,48.38,26.74,76.22Z"/>
        <path class="uuid-2a4f114a-9b3d-4582-81f5-143f3d48b5e1" d="M972.46,906.8c-.25,4.34-.49,8.74-.72,13.19h-297.17c.6-14.73,.43-29.45-.52-44.18-.66-10.24-1.53-20.92-2.58-32.05h300.9c.27,6.92,.48,13.66,.66,20.22,.39,14.53,.2,28.8-.58,42.83Z"/>
        <path class="uuid-2a4f114a-9b3d-4582-81f5-143f3d48b5e1" d="M370.79,920H83.8c-.29-9.72-.52-19.53-.7-29.42-.29-15.53-.03-31.14,.81-46.81H371.27c-.45,12.7-.74,25.33-.88,37.95-.13,13.08,0,25.85,.4,38.28Z"/>
        <path class="uuid-2a4f114a-9b3d-4582-81f5-143f3d48b5e1" d="M964.27,996.22c-5.39,28.24-13.85,53.65-25.4,76.24H114.38c-11.28-22.58-19.39-47.99-24.36-76.24H377.95c5.75,20.84,18.82,37.15,39.17,48.96,23.74,13.79,60.12,20.66,109.19,20.66s80.78-6.87,102.2-20.66c18.33-11.81,30.82-28.12,37.45-48.96h298.3Z"/>
        <path class="uuid-2a4f114a-9b3d-4582-81f5-143f3d48b5e1" d="M875.01,1148.69c-4.9,3.68-9.99,7.19-15.26,10.52-66.58,42.08-178.09,63.1-334.6,63.1s-265.71-21.01-332.28-63.1c-5.27-3.33-10.36-6.84-15.26-10.52H875.01Z"/>
      </g>
      <g>
        <path class="uuid-8f1cccc8-eab6-4931-b661-c8755fad88fe" d="M784.45,70.04H103.2c24.96-16.67,55.25-30.11,90.87-40.34C258.29,11.25,344.14,2,451.59,2c148.71,0,256.93,20.92,324.68,62.75,2.78,1.71,5.51,3.48,8.18,5.29Z"/>
        <path class="uuid-8f1cccc8-eab6-4931-b661-c8755fad88fe" d="M881.61,222.51h-288.31c-4.56-18.84-16.96-33.65-37.18-44.47-25.31-13.54-60.53-20.3-105.7-20.3-48.27,0-83.91,6.76-106.87,20.3-18.37,10.83-30.63,25.64-36.8,44.47H8.49c5.63-28.47,14.31-53.88,26.04-76.23H854.18c12.41,22.49,21.55,47.9,27.43,76.23Z"/>
        <path class="uuid-8f1cccc8-eab6-4931-b661-c8755fad88fe" d="M299.55,374.97H.07c-.12-12.49-.08-24.63,.13-36.41,.23-13.27,.53-26.54,.9-39.82H297.91c-.32,8.22-.48,16.46-.48,24.69,0,17.31,.69,34.48,2.11,51.54Z"/>
        <path class="uuid-8f1cccc8-eab6-4931-b661-c8755fad88fe" d="M888.4,355.53c-.31,6.52-.62,13-.93,19.43h-289.9c.29-10.28,.49-20.58,.6-30.88,.16-15.14,.08-30.26-.25-45.35h291.56c.28,16.83-.08,35.77-1.08,56.8Z"/>
        <path class="uuid-8f1cccc8-eab6-4931-b661-c8755fad88fe" d="M536.77,527.42H29.41c-11.37-22.86-19.42-48.27-24.14-76.22H316.84c4.53,8.06,10.14,15.54,16.79,22.41,17.12,17.73,46.72,29.77,88.77,36.16l114.36,17.65Z"/>
        <path class="uuid-8f1cccc8-eab6-4931-b661-c8755fad88fe" d="M863.86,679.89H328l-21.23-3.33c-75.53-12.78-135.28-30.86-179.29-54.22-11-5.84-21.23-12.07-30.67-18.68H791.97c31.81,21.27,55.59,46.31,71.31,75.13,.2,.37,.4,.73,.58,1.1Z"/>
        <path class="uuid-8f1cccc8-eab6-4931-b661-c8755fad88fe" d="M897.66,832.35h-300.9c-.8-8.38-1.67-17.02-2.68-25.89-2.92-18.44-9.33-35.23-19.25-50.34h315.78c3.13,15.98,5.11,32.76,5.96,50.34,.43,8.89,.78,17.52,1.09,25.89Z"/>
        <path class="uuid-8f1cccc8-eab6-4931-b661-c8755fad88fe" d="M300.94,757.73c-2.06,25.04-3.52,49.91-4.4,74.61H9.18c.25-4.93,.57-9.87,.94-14.81,1.55-20.67,3.89-40.59,7.01-59.8H300.94Z"/>
        <path class="uuid-8f1cccc8-eab6-4931-b661-c8755fad88fe" d="M303.23,984.8H15.29c-2.55-14.43-4.26-29.6-5.15-45.51-.4-10.15-.76-20.38-1.06-30.71H296.07c.72,22.89,2.34,44.69,4.88,65.41,.56,3.73,1.32,7.33,2.28,10.81Z"/>
        <path class="uuid-8f1cccc8-eab6-4931-b661-c8755fad88fe" d="M897.02,908.58c-.54,9.95-1.08,20.19-1.61,30.71-1.16,15.91-3.11,31.08-5.87,45.51h-298.3c1.1-3.48,2.05-7.08,2.83-10.81,2.32-19.18,4.09-37.75,5.26-55.73,.21-3.23,.39-6.46,.52-9.68h297.17Z"/>
        <path class="uuid-8f1cccc8-eab6-4931-b661-c8755fad88fe" d="M864.14,1061.04c-15.63,30.62-36.93,56.03-63.85,76.23H102.88c-26.87-20.22-47.94-45.62-63.23-76.23H864.14Z"/>
      </g>
    </g>
    <text class="uuid-00dbaf0b-0381-4e1e-ab35-bf4a0f840656" transform="translate(962.19 1150.5)"><tspan x="0" y="0">.</tspan><tspan class="uuid-502d683e-e9ac-4437-ac54-eff1b463e4e9" x="53.27" y="0">d</tspan><tspan class="uuid-4b081196-f448-4922-a1b7-cb7f0643d97e" x="146.18" y="0">e</tspan><tspan class="uuid-ab210b95-b4e4-40eb-8286-d047c10a9a83" x="234.15" y="0">v</tspan></text>
  </g>
</svg>