<?xml version="1.0" encoding="UTF-8"?>
<svg id="uuid-5640ad1f-ad9f-4fda-b467-78d41766ca91" data-name="Layer 1" xmlns="http://www.w3.org/2000/svg" viewBox="0 0 1271.58 1221.31">
  <defs>
    <style>
      .uuid-25cb09ca-68ec-40f7-bb18-d5891fa777a3 {
        fill: #009245;
      }

      .uuid-318854f1-6d5b-4873-89f4-4640b22c7d7d {
        fill: #1c5739;
      }
    </style>
  </defs>
  <g id="uuid-6b0bcf9f-a23e-4bf1-ac0c-b311824eca8b" data-name="color">
    <g>
      <g>
        <path class="uuid-25cb09ca-68ec-40f7-bb18-d5891fa777a3" d="M928.91,156.69H109.25c5.57-10.65,11.85-20.6,18.81-29.86,13.19-17.53,29.81-33,49.87-46.37H859.18c29.42,19.86,52.67,45.27,69.73,76.23Z"/>
        <path class="uuid-25cb09ca-68ec-40f7-bb18-d5891fa777a3" d="M964.2,309.14h-291.56c-.43-20.47-1.32-40.9-2.64-61.29-.16-5.23-.81-10.2-1.97-14.93h288.31c3.25,15.65,5.53,32.19,6.79,49.61,.57,8.2,.93,17.07,1.08,26.61Z"/>
        <path class="uuid-25cb09ca-68ec-40f7-bb18-d5891fa777a3" d="M381.49,232.92c-1.55,4.73-2.71,9.7-3.49,14.93-2.79,20.38-4.57,40.81-5.35,61.29H75.83c.25-8.87,.53-17.73,.85-26.61,1.26-17.45,3.44-33.99,6.54-49.61H381.49Z"/>
        <path class="uuid-25cb09ca-68ec-40f7-bb18-d5891fa777a3" d="M962.19,385.38c-1.25,26.05-2.5,51.3-3.75,75.76h-289.65c1.65-25.19,2.83-50.44,3.49-75.76h289.9Z"/>
        <path class="uuid-25cb09ca-68ec-40f7-bb18-d5891fa777a3" d="M391.57,461.61H80c-2.28-13.58-3.79-27.75-4.5-42.53-.37-11.49-.6-22.73-.7-33.7H374.27c.92,11.29,2.17,22.53,3.72,33.7,1.91,15.65,6.43,29.84,13.58,42.53Z"/>
        <path class="uuid-25cb09ca-68ec-40f7-bb18-d5891fa777a3" d="M866.7,614.07H171.54c-28.31-19.78-49.61-42.95-63.92-69.51-1.2-2.22-2.35-4.45-3.48-6.72h507.36l38.63,5.96c80.98,11.81,144.23,29.89,189.77,54.24,9.5,5.07,18.42,10.41,26.81,16.03Z"/>
        <path class="uuid-25cb09ca-68ec-40f7-bb18-d5891fa777a3" d="M965.33,766.53h-315.78c-3.31-5.05-7.01-9.91-11.11-14.6-16.37-18.69-43.98-31.24-82.93-37.63l-152.79-23.99H938.59c12.38,22.97,21.29,48.38,26.74,76.22Z"/>
        <path class="uuid-25cb09ca-68ec-40f7-bb18-d5891fa777a3" d="M972.46,905.8c-.25,4.34-.49,8.74-.72,13.19h-297.17c.6-14.73,.43-29.45-.52-44.18-.66-10.24-1.53-20.92-2.58-32.05h300.9c.27,6.92,.48,13.66,.66,20.22,.39,14.53,.2,28.8-.58,42.83Z"/>
        <path class="uuid-25cb09ca-68ec-40f7-bb18-d5891fa777a3" d="M370.79,919H83.8c-.29-9.72-.52-19.53-.7-29.42-.29-15.53-.03-31.14,.81-46.81H371.27c-.45,12.7-.74,25.33-.88,37.95-.13,13.08,0,25.85,.4,38.28Z"/>
        <path class="uuid-25cb09ca-68ec-40f7-bb18-d5891fa777a3" d="M964.27,995.22c-5.39,28.24-13.85,53.65-25.4,76.24H114.38c-11.28-22.58-19.39-47.99-24.36-76.24H377.95c5.75,20.84,18.82,37.15,39.17,48.96,23.74,13.79,60.12,20.66,109.19,20.66s80.78-6.87,102.2-20.66c18.33-11.81,30.82-28.12,37.45-48.96h298.3Z"/>
        <path class="uuid-25cb09ca-68ec-40f7-bb18-d5891fa777a3" d="M875.01,1147.69c-4.9,3.68-9.99,7.19-15.26,10.52-66.58,42.08-178.09,63.1-334.6,63.1s-265.71-21.01-332.28-63.1c-5.27-3.33-10.36-6.84-15.26-10.52H875.01Z"/>
      </g>
      <g>
        <path class="uuid-318854f1-6d5b-4873-89f4-4640b22c7d7d" d="M784.45,69.04H103.2c24.96-16.67,55.25-30.11,90.87-40.34C258.29,10.25,344.14,1,451.59,1c148.71,0,256.93,20.92,324.68,62.75,2.78,1.71,5.51,3.48,8.18,5.29Z"/>
        <path class="uuid-318854f1-6d5b-4873-89f4-4640b22c7d7d" d="M881.61,221.51h-288.31c-4.56-18.84-16.96-33.65-37.18-44.47-25.31-13.54-60.53-20.3-105.7-20.3-48.27,0-83.91,6.76-106.87,20.3-18.37,10.83-30.63,25.64-36.8,44.47H8.49c5.63-28.47,14.31-53.88,26.04-76.23H854.18c12.41,22.49,21.55,47.9,27.43,76.23Z"/>
        <path class="uuid-318854f1-6d5b-4873-89f4-4640b22c7d7d" d="M299.55,373.97H.07c-.12-12.49-.08-24.63,.13-36.41,.23-13.27,.53-26.54,.9-39.82H297.91c-.32,8.22-.48,16.46-.48,24.69,0,17.31,.69,34.48,2.11,51.54Z"/>
        <path class="uuid-318854f1-6d5b-4873-89f4-4640b22c7d7d" d="M888.4,354.53c-.31,6.52-.62,13-.93,19.43h-289.9c.29-10.28,.49-20.58,.6-30.88,.16-15.14,.08-30.26-.25-45.35h291.56c.28,16.83-.08,35.77-1.08,56.8Z"/>
        <path class="uuid-318854f1-6d5b-4873-89f4-4640b22c7d7d" d="M536.77,526.42H29.41c-11.37-22.86-19.42-48.27-24.14-76.22H316.84c4.53,8.06,10.14,15.54,16.79,22.41,17.12,17.73,46.72,29.77,88.77,36.16l114.36,17.65Z"/>
        <path class="uuid-318854f1-6d5b-4873-89f4-4640b22c7d7d" d="M863.86,678.89H328l-21.23-3.33c-75.53-12.78-135.28-30.86-179.29-54.22-11-5.84-21.23-12.07-30.67-18.68H791.97c31.81,21.27,55.59,46.31,71.31,75.13,.2,.37,.4,.73,.58,1.1Z"/>
        <path class="uuid-318854f1-6d5b-4873-89f4-4640b22c7d7d" d="M897.66,831.35h-300.9c-.8-8.38-1.67-17.02-2.68-25.89-2.92-18.44-9.33-35.23-19.25-50.34h315.78c3.13,15.98,5.11,32.76,5.96,50.34,.43,8.89,.78,17.52,1.09,25.89Z"/>
        <path class="uuid-318854f1-6d5b-4873-89f4-4640b22c7d7d" d="M300.94,756.73c-2.06,25.04-3.52,49.91-4.4,74.61H9.18c.25-4.93,.57-9.87,.94-14.81,1.55-20.67,3.89-40.59,7.01-59.8H300.94Z"/>
        <path class="uuid-318854f1-6d5b-4873-89f4-4640b22c7d7d" d="M303.23,983.8H15.29c-2.55-14.43-4.26-29.6-5.15-45.51-.4-10.15-.76-20.38-1.06-30.71H296.07c.72,22.89,2.34,44.69,4.88,65.41,.56,3.73,1.32,7.33,2.28,10.81Z"/>
        <path class="uuid-318854f1-6d5b-4873-89f4-4640b22c7d7d" d="M897.02,907.58c-.54,9.95-1.08,20.19-1.61,30.71-1.16,15.91-3.11,31.08-5.87,45.51h-298.3c1.1-3.48,2.05-7.08,2.83-10.81,2.32-19.18,4.09-37.75,5.26-55.73,.21-3.23,.39-6.46,.52-9.68h297.17Z"/>
        <path class="uuid-318854f1-6d5b-4873-89f4-4640b22c7d7d" d="M864.14,1060.04c-15.63,30.62-36.93,56.03-63.85,76.23H102.88c-26.87-20.22-47.94-45.62-63.23-76.23H864.14Z"/>
      </g>
    </g>
    <g>
      <path class="uuid-318854f1-6d5b-4873-89f4-4640b22c7d7d" d="M974.28,1149.5v-23.26h29.11v23.26h-29.11Z"/>
      <path class="uuid-318854f1-6d5b-4873-89f4-4640b22c7d7d" d="M1052.5,1151.32c-8.23,0-14.34-2.42-18.32-7.28-3.99-4.85-6.15-12.78-6.5-23.78-.17-7.36-.3-15.07-.39-23.13-.09-8.06-.13-16.22-.13-24.49s.04-16.63,.13-25.08c.08-8.45,.21-16.74,.39-24.88,.34-11.09,2.58-19.01,6.69-23.78,4.11-4.76,10.24-7.15,18.39-7.15,6.06,0,10.74,1.28,14.03,3.83,3.29,2.56,6.24,6.52,8.84,11.89h3.12v-65.88h17.15v207.91h-17.15v-13.9h-3.38c-2.51,5.11-5.46,9.01-8.84,11.7-3.38,2.68-8.06,4.03-14.03,4.03Zm5.59-13.51c4.94,0,9.18-1.28,12.73-3.83,3.55-2.55,6.19-6.56,7.93-12.02v-100.84c-1.73-5.54-4.35-9.57-7.86-12.08-3.51-2.51-7.69-3.77-12.54-3.77-4.59,0-7.93,1.26-10,3.77-2.08,2.51-3.21,6.67-3.38,12.47-.35,11.87-.56,23.5-.65,34.89-.09,11.39-.09,22.53,0,33.4,.08,10.87,.3,21.46,.65,31.77,.17,5.72,1.25,9.86,3.25,12.41,1.99,2.56,5.28,3.83,9.88,3.83Z"/>
      <path class="uuid-318854f1-6d5b-4873-89f4-4640b22c7d7d" d="M1154.25,1151.19c-11.7,0-20.1-2.42-25.21-7.28-5.11-4.85-7.93-12.95-8.45-24.3-.17-7.02-.3-14.57-.39-22.67-.09-8.1-.13-16.44-.13-25.01s.04-16.98,.13-25.21c.08-8.23,.21-15.9,.39-23,.52-11.52,3.4-19.71,8.64-24.56,5.24-4.85,13.58-7.28,25.01-7.28s19.23,2.43,24.17,7.28c4.94,4.85,7.71,12.82,8.32,23.91,.08,2.69,.17,6.61,.26,11.76,.09,5.16,.11,11.2,.07,18.13-.04,6.93-.24,14.34-.58,22.22h-49.12c0,7.1,.06,14.4,.19,21.9,.13,7.49,.24,15.53,.33,24.1,.17,6.24,1.49,10.5,3.96,12.8,2.47,2.3,6.56,3.44,12.28,3.44s9.46-1.15,11.76-3.44,3.57-6.56,3.83-12.8c.17-3.2,.26-6.93,.26-11.18s-.13-8.97-.39-14.16h16.89c.26,3.9,.41,7.99,.46,12.28,.04,4.29-.02,8.12-.2,11.5-.61,11.35-3.27,19.45-7.99,24.3-4.72,4.85-12.89,7.28-24.49,7.28Zm-16.89-89.53h32.49c.17-5.46,.28-10.85,.33-16.18,.04-5.33,.02-10.11-.07-14.36-.09-4.24-.22-7.45-.39-9.62-.26-5.72-1.58-9.79-3.96-12.21-2.38-2.42-6.22-3.64-11.5-3.64-5.72,0-9.83,1.21-12.34,3.64-2.51,2.43-3.86,6.5-4.03,12.21-.09,7.45-.17,14.45-.26,20.99-.09,6.54-.17,12.93-.26,19.17Z"/>
      <path class="uuid-318854f1-6d5b-4873-89f4-4640b22c7d7d" d="M1219.61,1149.5l-18.71-155.93h17.8l7.54,78.62,5.98,63.67h7.41l5.98-63.67,8.32-78.62h17.67l-19.49,155.93h-32.49Z"/>
    </g>
  </g>
</svg>